<svg width="41" height="24" viewBox="0 0 41 24" fill="none" xmlns="http://www.w3.org/2000/svg">
<path d="M0.8125 14.1232C0.8125 13.601 1.01992 13.1003 1.38913 12.7311C1.75835 12.3618 2.2591 12.1544 2.78125 12.1544H38.2188C38.7409 12.1544 39.2417 12.3618 39.6109 12.7311C39.9801 13.1003 40.1875 13.601 40.1875 14.1232C40.1875 14.6453 39.9801 15.1461 39.6109 15.5153C39.2417 15.8845 38.7409 16.0919 38.2188 16.0919H2.78125C2.2591 16.0919 1.75835 15.8845 1.38913 15.5153C1.01992 15.1461 0.8125 14.6453 0.8125 14.1232ZM0.8125 21.9982C0.8125 21.476 1.01992 20.9753 1.38913 20.6061C1.75835 20.2368 2.2591 20.0294 2.78125 20.0294H26.4062C26.9284 20.0294 27.4292 20.2368 27.7984 20.6061C28.1676 20.9753 28.375 21.476 28.375 21.9982C28.375 22.5203 28.1676 23.0211 27.7984 23.3903C27.4292 23.7595 26.9284 23.9669 26.4062 23.9669H2.78125C2.2591 23.9669 1.75835 23.7595 1.38913 23.3903C1.01992 23.0211 0.8125 22.5203 0.8125 21.9982ZM0.8125 2.31067C0.8125 1.78852 1.01992 1.28777 1.38913 0.918553C1.75835 0.549341 2.2591 0.341919 2.78125 0.341919H38.2188C38.7409 0.341919 39.2417 0.549341 39.6109 0.918553C39.9801 1.28777 40.1875 1.78852 40.1875 2.31067V6.24817C40.1875 6.77031 39.9801 7.27107 39.6109 7.64029C39.2417 8.0095 38.7409 8.21692 38.2188 8.21692H2.78125C2.2591 8.21692 1.75835 8.0095 1.38913 7.64029C1.01992 7.27107 0.8125 6.77031 0.8125 6.24817V2.31067Z" fill="#272727"/>
</svg>
